<svg width="30" height="30" viewBox="0 0 30 30" fill="none" xmlns="http://www.w3.org/2000/svg">
<path d="M24.3174 10.0186L25.3135 7.79199L27.4814 6.7959C28.0088 6.62012 28.0088 5.91699 27.4814 5.68262L25.3135 4.68652L24.3174 2.51855C24.083 1.99121 23.4385 1.99121 23.2041 2.51855L22.208 4.68652L19.9814 5.68262C19.5127 5.91699 19.5127 6.56152 19.9814 6.7959L22.208 7.79199L23.2041 10.0186C23.3799 10.4873 24.083 10.4873 24.3174 10.0186ZM14.3564 11.8936L12.3643 7.49902C11.9541 6.50293 10.5479 6.50293 10.1377 7.49902L8.14551 11.8936L3.75098 13.8857C2.75488 14.2959 2.75488 15.7021 3.75098 16.1123L8.14551 18.1045L10.1377 22.499C10.5479 23.4951 11.9541 23.4951 12.3643 22.499L14.3564 18.1045L18.751 16.1123C19.7471 15.7021 19.7471 14.2959 18.751 13.8857L14.3564 11.8936ZM23.2041 19.9795L22.208 22.2061L19.9814 23.2021C19.5127 23.3779 19.5127 24.0811 19.9814 24.3154L22.208 25.3115L23.2041 27.4795C23.3799 28.0068 24.083 28.0068 24.3174 27.4795L25.3135 25.3115L27.4814 24.3154C28.0088 24.0811 28.0088 23.4365 27.4814 23.2021L25.3135 22.2061L24.3174 19.9795C24.083 19.5107 23.3799 19.5107 23.2041 19.9795Z" fill="#C9A86A"/>
</svg>
