<svg width="24" height="24" viewBox="0 0 24 24" fill="none" xmlns="http://www.w3.org/2000/svg">
<path d="M18.0003 15.9844V11.0156C18.0003 7.92188 16.3596 5.34375 13.5003 4.6875V3.98438C13.5003 3.1875 12.7971 2.48438 12.0003 2.48438C11.1565 2.48438 10.5003 3.1875 10.5003 3.98438V4.6875C7.64088 5.34375 6.00026 7.92188 6.00026 11.0156V15.9844L4.68776 17.2969C4.07838 17.9062 4.50026 18.9844 5.39088 18.9844H18.5628C19.4534 18.9844 19.9221 17.9062 19.2659 17.2969L18.0003 15.9844ZM12.0003 21.9844C13.0784 21.9844 13.969 21.0938 13.969 20.0156H9.98463C9.98463 21.0938 10.8753 21.9844 12.0003 21.9844ZM6.75026 4.73438C7.17213 4.35938 7.21901 3.70312 6.79713 3.28125C6.42213 2.90625 5.81276 2.90625 5.39088 3.28125C3.70338 4.82812 2.53151 6.9375 2.15651 9.32812C2.06276 9.9375 2.53151 10.5 3.14088 10.5C3.60963 10.5 4.03151 10.1719 4.12526 9.65625C4.40651 7.73438 5.39088 6 6.75026 4.73438ZM18.6096 3.28125C18.1878 2.90625 17.5784 2.90625 17.2034 3.28125C16.7815 3.70312 16.8284 4.35938 17.2503 4.73438C18.6096 6 19.594 7.73438 19.8753 9.65625C19.969 10.125 20.3909 10.5 20.8596 10.5C21.469 10.5 21.9378 9.9375 21.844 9.32812C21.469 6.9375 20.2971 4.82812 18.6096 3.28125Z" fill="#C9A86A"/>
</svg>
