<svg width="24" height="24" viewBox="0 0 24 24" fill="none" xmlns="http://www.w3.org/2000/svg">
<path d="M3.98438 15C3.46875 15 3 15.4688 3 15.9844V18.9844C3 20.1094 3.89062 21 5.01562 21H8.01562C8.53125 21 9 20.5312 9 20.0156C9 19.4531 8.53125 18.9844 8.01562 18.9844H6C5.4375 18.9844 5.01562 18.5625 5.01562 18V15.9844C5.01562 15.4688 4.54688 15 3.98438 15ZM5.01562 6C5.01562 5.4375 5.4375 5.01562 6 5.01562H8.01562C8.53125 5.01562 9 4.54688 9 3.98438C9 3.46875 8.53125 3 8.01562 3H5.01562C3.89062 3 3 3.89062 3 5.01562V8.01562C3 8.53125 3.46875 9 3.98438 9C4.54688 9 5.01562 8.53125 5.01562 8.01562V6ZM18.9844 3H15.9844C15.4688 3 15 3.46875 15 3.98438C15 4.54688 15.4688 5.01562 15.9844 5.01562H18C18.5625 5.01562 18.9844 5.4375 18.9844 6V8.01562C18.9844 8.53125 19.4531 9 20.0156 9C20.5312 9 21 8.53125 21 8.01562V5.01562C21 3.89062 20.1094 3 18.9844 3ZM18.9844 18C18.9844 18.5625 18.5625 18.9844 18 18.9844H15.9844C15.4688 18.9844 15 19.4531 15 20.0156C15 20.5312 15.4688 21 15.9844 21H18.9844C20.1094 21 21 20.1094 21 18.9844V15.9844C21 15.4688 20.5312 15 20.0156 15C19.4531 15 18.9844 15.4688 18.9844 15.9844V18ZM12 8.01562C9.79688 8.01562 8.01562 9.79688 8.01562 12C8.01562 14.2031 9.79688 15.9844 12 15.9844C14.2031 15.9844 15.9844 14.2031 15.9844 12C15.9844 9.79688 14.2031 8.01562 12 8.01562ZM12 14.0156C10.9219 14.0156 9.98438 13.0781 9.98438 12C9.98438 10.9219 10.9219 9.98438 12 9.98438C13.0781 9.98438 14.0156 10.9219 14.0156 12C14.0156 13.0781 13.0781 14.0156 12 14.0156Z" fill="#C9A86A"/>
</svg>
