<svg width="10" height="13" viewBox="0 0 10 13" fill="none" xmlns="http://www.w3.org/2000/svg">
<path d="M8.17578 4.10156H7.60156V2.92578C7.60156 1.3125 6.28906 0 4.67578 0C3.0625 0 1.75 1.3125 1.75 2.92578V4.10156H1.17578C0.546875 4.10156 0 4.62109 0 5.25V11.1016C0 11.7305 0.546875 12.25 1.17578 12.25H8.17578C8.80469 12.25 9.35156 11.7305 9.35156 11.1016V5.25C9.35156 4.62109 8.80469 4.10156 8.17578 4.10156ZM4.67578 9.35156C4.04688 9.35156 3.5 8.80469 3.5 8.17578C3.5 7.54688 4.04688 7 4.67578 7C5.30469 7 5.85156 7.54688 5.85156 8.17578C5.85156 8.80469 5.30469 9.35156 4.67578 9.35156ZM2.92578 4.10156V2.92578C2.92578 1.96875 3.71875 1.17578 4.67578 1.17578C5.63281 1.17578 6.42578 1.96875 6.42578 2.92578V4.10156H2.92578Z" fill="#6E655C"/>
</svg>
